<svg width="70" height="70" viewBox="0 0 70 70" fill="none" xmlns="http://www.w3.org/2000/svg">
<mask id="mask0_35_256" style="mask-type:alpha" maskUnits="userSpaceOnUse" x="0" y="0" width="70" height="70">
<rect width="70" height="70" fill="#D9D9D9"/>
</mask>
<g mask="url(#mask0_35_256)">
<path d="M20.4167 66.3438C18.8125 66.3438 17.4393 65.7592 16.2969 64.5898C15.1545 63.4205 14.5834 62.0148 14.5834 60.3727C14.5834 58.7306 15.1545 57.3249 16.2969 56.1556C17.4393 54.9862 18.8125 54.4016 20.4167 54.4016C22.0209 54.4016 23.3941 54.9862 24.5365 56.1556C25.6788 57.3249 26.25 58.7306 26.25 60.3727C26.25 62.0148 25.6788 63.4205 24.5365 64.5898C23.3941 65.7592 22.0209 66.3438 20.4167 66.3438ZM49.5834 66.3438C47.9792 66.3438 46.6059 65.7592 45.4636 64.5898C44.3212 63.4205 43.75 62.0148 43.75 60.3727C43.75 58.7306 44.3212 57.3249 45.4636 56.1556C46.6059 54.9862 47.9792 54.4016 49.5834 54.4016C51.1875 54.4016 52.5608 54.9862 53.7031 56.1556C54.8455 57.3249 55.4167 58.7306 55.4167 60.3727C55.4167 62.0148 54.8455 63.4205 53.7031 64.5898C52.5608 65.7592 51.1875 66.3438 49.5834 66.3438ZM17.9375 18.5748L24.9375 33.5026H45.3542L53.375 18.5748H17.9375ZM15.1667 12.6037H58.1875C59.3056 12.6037 60.1563 13.1137 60.7396 14.1338C61.3229 15.1538 61.3472 16.1863 60.8125 17.2313L50.4584 36.3389C49.9236 37.3341 49.2066 38.1054 48.3073 38.6527C47.408 39.2001 46.4236 39.4737 45.3542 39.4737H23.625L20.4167 45.4449H55.4167V51.416H20.4167C18.2292 51.416 16.5764 50.4333 15.4584 48.4678C14.3403 46.5023 14.2917 44.5492 15.3125 42.6086L19.25 35.294L8.75002 12.6037H2.91669V6.63254H12.3959L15.1667 12.6037Z" fill="#2599D3"/>
</g>
</svg>
