<svg width="30" height="30" viewBox="0 0 30 30" fill="none" xmlns="http://www.w3.org/2000/svg">
<mask id="mask0_35_234" style="mask-type:alpha" maskUnits="userSpaceOnUse" x="0" y="0" width="30" height="30">
<rect width="30" height="30" fill="white"/>
</mask>
<g mask="url(#mask0_35_234)">
<path d="M24.9375 26.25C22.25 26.25 19.6302 25.651 17.0781 24.4531C14.526 23.2552 12.2656 21.6719 10.2969 19.7031C8.32813 17.7344 6.74479 15.474 5.54687 12.9219C4.34896 10.3698 3.75 7.75 3.75 5.0625C3.75 4.6875 3.875 4.375 4.125 4.125C4.375 3.875 4.6875 3.75 5.0625 3.75H10.125C10.4167 3.75 10.6771 3.84375 10.9062 4.03125C11.1354 4.21875 11.2708 4.45833 11.3125 4.75L12.125 9.125C12.1667 9.41667 12.1615 9.68229 12.1094 9.92187C12.0573 10.1615 11.9375 10.375 11.75 10.5625L8.71875 13.625C9.59375 15.125 10.6927 16.5312 12.0156 17.8437C13.3385 19.1562 14.7917 20.2917 16.375 21.25L19.3125 18.3125C19.5 18.125 19.7448 17.9844 20.0469 17.8906C20.349 17.7969 20.6458 17.7708 20.9375 17.8125L25.25 18.6875C25.5417 18.75 25.7812 18.8906 25.9687 19.1094C26.1562 19.3281 26.25 19.5833 26.25 19.875V24.9375C26.25 25.3125 26.125 25.625 25.875 25.875C25.625 26.125 25.3125 26.25 24.9375 26.25ZM7.53125 11.25L9.59375 9.1875L9.0625 6.25H6.28125C6.38542 7.10417 6.53125 7.94792 6.71875 8.78125C6.90625 9.61458 7.17708 10.4375 7.53125 11.25ZM18.7187 22.4375C19.5312 22.7917 20.3594 23.0729 21.2031 23.2812C22.0469 23.4896 22.8958 23.625 23.75 23.6875V20.9375L20.8125 20.3438L18.7187 22.4375Z" fill="white"/>
</g>
</svg>
