<svg width="70" height="70" viewBox="0 0 70 70" fill="none" xmlns="http://www.w3.org/2000/svg">
<mask id="mask0_1_11" style="mask-type:alpha" maskUnits="userSpaceOnUse" x="0" y="0" width="70" height="70">
<rect width="70" height="70" fill="#D9D9D9"/>
</mask>
<g mask="url(#mask0_1_11)">
<path d="M11.6559 61.25C10.8995 61.25 10.2099 60.9948 9.58692 60.4844C8.96398 59.9739 8.54128 59.3055 8.3188 58.4792L0.84359 29.0208C0.621113 28.3403 0.721228 27.7083 1.14393 27.125C1.56664 26.5416 2.13395 26.25 2.84588 26.25H16.328L28.0747 7.14581C28.2972 6.75692 28.6087 6.44095 29.0091 6.1979C29.4096 5.95484 29.8323 5.83331 30.2772 5.83331C30.7222 5.83331 31.1449 5.95484 31.5453 6.1979C31.9458 6.44095 32.2573 6.75692 32.4797 7.14581L44.2265 26.25H57.8421C58.554 26.25 59.1213 26.5416 59.544 27.125C59.9667 27.7083 60.0668 28.3403 59.8443 29.0208L52.3691 58.4792C52.1467 59.3055 51.724 59.9739 51.101 60.4844C50.4781 60.9948 49.7884 61.25 49.032 61.25H11.6559ZM12.9908 55.4166H47.6971L53.5705 32.0833H7.11743L12.9908 55.4166ZM30.344 49.5833C31.8123 49.5833 33.0693 49.0121 34.1149 47.8698C35.1606 46.7274 35.6834 45.3541 35.6834 43.75C35.6834 42.1458 35.1606 40.7726 34.1149 39.6302C33.0693 38.4878 31.8123 37.9166 30.344 37.9166C28.8756 37.9166 27.6186 38.4878 26.573 39.6302C25.5274 40.7726 25.0045 42.1458 25.0045 43.75C25.0045 45.3541 25.5274 46.7274 26.573 47.8698C27.6186 49.0121 28.8756 49.5833 30.344 49.5833ZM22.802 26.25H37.8192L30.2772 14L22.802 26.25Z" fill="#3366FF"/>
</g>
</svg>
